Fly_normalized_Motion_pl09
version=1
nRows=12
nColumns=43
inDegrees=yes
endheader
time		pelvis_tilt		pelvis_list		pelvis_rotation		pelvis_tx		pelvis_ty		pelvis_tz		hip_flexion_r		hip_adduction_r		hip_rotation_r		knee_angle_r		ankle_angle_r		subtalar_angle_r		mtp_angle_r		hip_flexion_l		hip_adduction_l		hip_rotation_l		knee_angle_l		ankle_angle_l		subtalar_angle_l		mtp_angle_l		lumbar_extension		lumbar_bending		lumbar_rotation		neck_flexion		neck_lateral_bending		neck_rotation		arm_flex_r		arm_add_r		arm_rot_r		elbow_flex_r		pro_sup_r		wrist_flex_r		wrist_dev_r		hand_finger_flex_r		arm_flex_l		arm_add_l		arm_rot_l		elbow_flex_l		pro_sup_l		wrist_flex_l		wrist_dev_l		hand_finger_flex_l		
2.272500		6.389177		-15.444507		91.465904		-0.023699		1.692548		1.323996		67.758932		-4.619613		-1.823655		-116.563591		-7.134749		-8.452544		22.067088		43.352434		-11.821399		6.085741		-122.073679		4.356875		3.189249		15.806415		-29.316513		2.353438		2.141684		5.556285		8.084802		0.341535		98.023792		-12.250209		30.240510		56.644390		98.736850		2.873533		-13.876381		-31.203486		99.157283		-8.266521		21.654409		53.787514		105.013567		-11.452039		-7.592883		-17.173820		
2.276566		6.260903		-15.149796		91.165745		-0.023490		1.693052		1.316128		67.666777		-4.618392		-2.284241		-115.705986		-6.946788		-9.210396		21.345066		42.796969		-11.705321		5.974266		-121.410625		1.357791		2.566515		15.865522		-29.196291		2.208096		2.412037		4.799843		7.972577		0.347158		97.100263		-12.714739		30.441099		56.551975		99.182120		2.974569		-13.705005		-31.041330		97.904837		-8.525658		21.333644		54.079976		105.303566		-11.393880		-7.644513		-17.185857		
2.280631		6.126256		-14.868131		90.961408		-0.023399		1.693479		1.308163		67.595970		-4.761104		-2.755206		-114.811316		-7.026651		-9.627313		20.915276		42.245139		-11.535239		5.901987		-120.680078		-1.240626		2.109749		15.918971		-29.096709		2.082148		2.608941		4.117824		7.919629		0.302816		96.106298		-13.361863		30.660720		56.700668		99.491104		3.192064		-13.617758		-30.787924		96.603009		-8.985651		21.261954		54.625094		105.635145		-11.279548		-7.814475		-17.142737		
2.284697		5.994184		-14.571152		90.753998		-0.023285		1.693777		1.300243		67.518969		-4.871135		-3.218022		-113.906902		-7.176397		-10.075097		20.431916		41.761104		-11.384949		5.825380		-119.881298		-4.415626		1.396284		16.080226		-29.018485		1.965180		2.816480		3.489874		7.841187		0.263617		95.057497		-13.919748		30.673837		56.773362		99.820625		3.384194		-13.402819		-30.401718		95.259563		-9.387259		21.048262		55.112358		106.120678		-11.147160		-7.888315		-17.083092		
2.288763		5.916141		-14.280643		90.552181		-0.023048		1.693932		1.292479		67.434822		-4.872323		-3.667386		-112.968868		-7.236721		-10.308781		20.193449		41.412297		-11.310107		5.845912		-119.025548		-8.036282		0.878953		16.204271		-28.946582		1.880112		3.041892		2.950530		7.794195		0.247897		93.933680		-14.344687		30.425513		56.753286		99.954501		3.490755		-13.048049		-29.986130		93.949336		-9.727395		20.791868		55.456811		106.580635		-11.052340		-7.832810		-16.995574		
2.292828		5.843502		-14.017690		90.377056		-0.022861		1.693925		1.284624		67.344014		-4.920480		-4.132909		-112.001301		-7.292106		-10.319240		20.054352		41.097351		-11.238414		5.854650		-118.146036		-11.043154		0.548021		16.425058		-28.858560		1.803586		3.263270		2.397621		7.788723		0.211283		92.713983		-14.880825		30.133099		56.901369		100.044695		3.589927		-12.726795		-29.542016		92.571529		-10.174226		20.632734		55.958137		107.080372		-10.885816		-7.809657		-16.856521		
2.296894		5.815137		-13.793032		90.204232		-0.022629		1.693769		1.276895		67.270536		-4.930756		-4.600650		-110.999473		-7.244316		-10.052106		20.036289		40.891385		-11.235947		5.867865		-117.254993		-13.418945		0.492061		16.653808		-28.754260		1.753768		3.514418		1.885243		7.821766		0.200293		91.440467		-15.401187		29.728295		57.061096		100.094967		3.662052		-12.329525		-29.204041		91.200885		-10.618197		20.479830		56.427819		107.502471		-10.692288		-7.706878		-16.708606		
2.300960		5.795220		-13.600577		90.054760		-0.022486		1.693449		1.269144		67.200581		-4.899258		-5.023918		-109.984342		-7.171320		-9.579181		20.070916		40.759848		-11.200522		5.857998		-116.365290		-14.958651		0.563015		17.125196		-28.625506		1.725101		3.723400		1.401220		7.878342		0.166892		90.081290		-15.938150		29.295344		57.291559		100.236010		3.710268		-11.870974		-28.869769		89.781652		-11.053543		20.245496		56.904039		107.994024		-10.479445		-7.530866		-16.574055		
2.305025		5.753256		-13.392238		89.945501		-0.022412		1.693057		1.261470		67.101137		-4.936679		-5.453249		-108.958291		-7.197291		-9.118016		20.123816		40.620290		-11.124187		5.791156		-115.504545		-15.258128		0.779721		17.328489		-28.542422		1.694586		3.890016		0.985553		7.924197		0.125442		88.801862		-16.576116		29.114998		57.454409		100.313904		3.713570		-11.696711		-28.837268		88.419701		-11.577977		20.238735		57.308495		108.153948		-10.405719		-7.523174		-16.535768		
2.309091		5.804515		-13.324577		89.836830		-0.022266		1.692422		1.253951		67.109421		-4.816111		-5.815647		-107.860153		-6.978057		-8.032198		20.377099		40.660506		-11.175223		5.714387		-114.656411		-14.490925		1.046548		17.983418		-28.339513		1.746996		4.094791		0.591640		8.005195		0.116648		87.382986		-17.117667		28.661299		57.781907		100.749304		3.667532		-11.056731		-28.918671		86.956952		-12.010972		19.905504		57.793371		108.526698		-10.299455		-7.090180		-16.529480		
2.313157		5.781377		-13.224006		89.798622		-0.022346		1.691719		1.246479		67.087148		-4.857798		-6.191208		-106.778074		-6.989385		-7.191764		20.633573		40.658219		-11.104767		5.531317		-113.804767		-12.963465		1.024973		18.473366		-28.207382		1.781176		4.206157		0.329681		8.032495		0.053360		86.084558		-17.770827		28.437652		58.013580		101.120502		3.612475		-10.764650		-29.114664		85.543013		-12.537850		19.779123		58.242967		108.761613		-10.312980		-6.852564		-16.596034		
2.317222		5.740827		-13.129320		89.763040		-0.022372		1.690816		1.239021		67.062347		-4.927279		-6.568017		-105.700797		-7.025724		-6.343191		20.964443		40.695248		-11.052213		5.310510		-112.964255		-11.377779		0.913997		18.943005		-28.077826		1.792093		4.315657		0.130648		8.026463		-0.001976		84.803470		-18.458270		28.246986		58.201748		101.530533		3.582056		-10.483588		-29.352044		84.139632		-13.107996		19.722630		58.700306		109.006066		-10.312342		-6.580250		-16.669111		
